<?xml version="1.0" encoding="UTF-8"?>
<svg version="1.1" xmlns="http://www.w3.org/2000/svg" width="428" height="141">
<path d="M0 0 C1.3471716 2.69434321 1.10025864 4.743464 1.06933594 7.75976562 C1.05892273 8.96862427 1.04850952 10.17748291 1.03778076 11.42297363 C1.02015686 12.73745483 1.00253296 14.05193604 0.984375 15.40625 C0.96767262 16.76949007 0.95101062 18.13273064 0.93438721 19.49597168 C0.89786696 22.36099017 0.85665282 25.22590237 0.81298828 28.09082031 C0.75836649 31.7374559 0.72160015 35.38402943 0.68935776 39.03092194 C0.66127593 41.85205667 0.62020665 44.67290036 0.57575226 47.49382019 C0.54754104 49.48425798 0.5326125 51.47486999 0.51800537 53.4654541 C0.29885421 65.21295345 -1.69123793 75.52797977 -10.11328125 84.16796875 C-19.95099992 93.2451243 -29.37916168 95.3550353 -42.4375 95.3125 C-43.42298828 95.32861328 -44.40847656 95.34472656 -45.42382812 95.36132812 C-52.30161807 95.36588597 -59.533232 94.9250855 -65 90.3125 C-66.46583483 86.92275697 -67.26720689 83.71035846 -67 80 C-64.94291061 77.20823583 -62.89235408 75.92823605 -60 74 C-56.65159862 74.28497033 -53.47887423 74.89942975 -50.19140625 75.58984375 C-41.92464734 77.20107192 -36.1534801 77.15365635 -28.625 73.25 C-25.62837542 70.68146465 -24.35676773 68.69342327 -23 65 C-22.74715633 62.24853726 -22.74715633 62.24853726 -23 60 C-23.57621094 60.29648438 -24.15242188 60.59296875 -24.74609375 60.8984375 C-34.08041226 65.46044412 -42.88817281 66.61459609 -52.875 63.3125 C-57.19366278 61.57765256 -60.00927483 59.6449463 -63 56 C-63.50402344 55.53078125 -64.00804687 55.0615625 -64.52734375 54.578125 C-70.41079298 48.27331469 -71.485569 36.63170228 -71.30859375 28.41796875 C-70.35355468 17.84000433 -68.11148148 7.4368958 -60 0 C-43.77585738 -12.67805342 -16.65825989 -10.56937869 0 0 Z M-44.3125 14.0625 C-48.56278189 21.46113885 -48.58773659 29.77733164 -47 38 C-45.40784023 42.12514122 -44.68245508 43.54502994 -41 46 C-36.21683638 47.09494107 -32.20350978 47.43763992 -27.5625 45.75 C-24.46305456 43.68916793 -24.46305456 43.68916793 -22 41 C-21.58456042 37.89906261 -21.58456042 37.89906261 -21.70703125 34.36328125 C-21.71669922 33.06455078 -21.72636719 31.76582031 -21.73632812 30.42773438 C-21.76139415 29.05598361 -21.78678899 27.68423882 -21.8125 26.3125 C-21.8275498 24.92905076 -21.8412377 23.54558599 -21.85351562 22.16210938 C-21.88892777 18.77434793 -21.93831946 15.38736861 -22 12 C-30.48680282 8.21696761 -36.87353784 7.42774996 -44.3125 14.0625 Z " fill="#FBFBFB" transform="translate(307,44)"/>
<path d="M0 0 C7.4133814 6.07927595 10.8286998 12.04610115 12.0625 21.46484375 C13.21524765 34.73585109 12.06959086 43.56921436 4.875 54.875 C-3.49751419 63.24751419 -13.19065095 66.16456414 -24.875 66.5 C-33.14014568 66.30131861 -40.77188652 64.29296395 -48.375 61.125 C-48.375 60.465 -48.375 59.805 -48.375 59.125 C-48.973125 58.85558594 -49.57125 58.58617188 -50.1875 58.30859375 C-56.30166939 55.00039139 -59.57964905 48.82497959 -61.6796875 42.41015625 C-64.20240443 30.49102741 -62.96855584 18.58001372 -57.125 7.82421875 C-52.12835987 0.28667355 -44.70512418 -3.50307345 -36.125 -5.75 C-23.06463924 -8.31597676 -11.10460392 -7.87266696 0 0 Z M-34.375 13.125 C-40.03499675 19.77549618 -39.95497634 26.72061564 -39.375 35.125 C-38.47817874 39.90569284 -37.34281371 43.15718629 -33.875 46.625 C-29.60859565 49.18484261 -26.29481571 49.45854683 -21.375 49.125 C-16.7208865 47.39111458 -14.0210578 45.33909205 -11.375 41.125 C-9.28355655 33.97923488 -9.0811848 23.87732115 -12.375 17.125 C-14.52539697 13.34030133 -16.45805668 11.79769809 -20.5625 10.625 C-25.6622539 9.74979471 -29.88551144 10.5428693 -34.375 13.125 Z " fill="#FBFBFB" transform="translate(214.375,42.875)"/>
<path d="M0 0 C7.5422598 7.80574486 9.95959714 17.34711183 10 28 C9.52129091 40.20061273 6.52152513 48.01765821 -2.375 56.375 C-11.66720517 63.72959288 -22.49687826 64.78749978 -34 64 C-43.68081494 62.39047576 -51.44547788 59.58944666 -58 52 C-65.9584317 40.85819562 -66.3828086 29.13221577 -64.5703125 15.8515625 C-62.40761489 7.38767185 -57.24476149 1.09858271 -49.875 -3.4375 C-34.28354012 -12.17967638 -13.91979203 -11.78649057 0 0 Z M-39 13 C-41.59611711 18.030366 -42.52340701 22.24650169 -42.4375 27.9375 C-42.42992676 28.6389917 -42.42235352 29.3404834 -42.41455078 30.06323242 C-42.23110931 35.8242319 -41.43519383 39.38960829 -38 44 C-33.57900732 47.2152674 -29.30073544 47.7633059 -24 47 C-18.82417112 45.20836693 -16.51354942 42.84090998 -14 38 C-12.308029 30.38613052 -12.18742902 22.35353754 -15 15 C-17.22203068 11.63111478 -18.15667163 10.28110946 -22 9 C-28.61093029 8.36692818 -33.98845202 8.11374072 -39 13 Z " fill="#FBFBFB" transform="translate(133,45)"/>
<path d="M0 0 C4.91627108 4.07580562 8.70324396 8.24645063 10.75 14.38671875 C10.92398206 17.02782352 11.02679015 19.61918987 11.0625 22.26171875 C11.10600586 23.32326172 11.10600586 23.32326172 11.15039062 24.40625 C11.19369353 27.98373648 10.87733274 30.17168085 9.04296875 33.26953125 C4.55652127 37.41204323 -0.0605734 37.70292429 -5.95703125 37.80078125 C-7.04512337 37.82983047 -7.04512337 37.82983047 -8.15519714 37.85946655 C-10.45751422 37.91893983 -12.75988219 37.9655172 -15.0625 38.01171875 C-16.62957832 38.04992833 -18.19663631 38.08898178 -19.76367188 38.12890625 C-23.59228152 38.22461438 -27.42098942 38.30876323 -31.25 38.38671875 C-32.64352658 41.42939031 -32.64352658 41.42939031 -30.875 44.38671875 C-27.40820455 48.34877069 -24.39203999 49.54982961 -19.25 50.38671875 C-13.99418608 50.58167939 -9.76861854 49.87041125 -5.1875 47.26171875 C-0.7872459 44.80721595 2.96576249 45.0332213 7.75 46.38671875 C10.3125 47.94921875 10.3125 47.94921875 11.75 49.38671875 C11.36880232 55.00938454 11.01439336 58.35283314 6.75 62.38671875 C1.76640423 65.59045889 -3.50065066 66.44463547 -9.25 67.38671875 C-9.93707031 67.53496094 -10.62414062 67.68320313 -11.33203125 67.8359375 C-21.23454361 69.5968049 -33.42380715 66.79151406 -42.1328125 61.89453125 C-49.33991624 56.76179685 -52.7222292 50.57206859 -54.8125 42.109375 C-55.35810716 38.71394472 -55.38197464 35.45021849 -55.375 32.01171875 C-55.37757813 30.74585938 -55.38015625 29.48 -55.3828125 28.17578125 C-54.99665629 17.15897166 -51.84374424 10.38619172 -44.390625 2.3671875 C-32.84161748 -8.31775194 -12.56437277 -9.00882978 0 0 Z M-30.25 13.38671875 C-32.07820864 16.91705267 -33.25 19.39752513 -33.25 23.38671875 C-29.62506666 23.44459659 -26.00025143 23.48027295 -22.375 23.51171875 C-20.82619141 23.53685547 -20.82619141 23.53685547 -19.24609375 23.5625 C-18.25996094 23.56894531 -17.27382813 23.57539062 -16.2578125 23.58203125 C-15.34660645 23.59250488 -14.43540039 23.60297852 -13.49658203 23.61376953 C-11.04709564 23.60542868 -11.04709564 23.60542868 -9.25 21.38671875 C-9.33360215 17.6246221 -10.0787821 15.64078402 -12.1875 12.51171875 C-17.58934735 8.76349814 -25.28230712 8.72009816 -30.25 13.38671875 Z " fill="#FBFBFB" transform="translate(415.25,41.61328125)"/>
<path d="M0 0 C1.63663303 0.01676344 3.2735104 0.01741468 4.91015625 0.00195312 C18.56030537 -0.11982547 18.56030537 -0.11982547 23.36132812 2.93969727 C25.31834461 4.89283762 26.94693715 6.77566901 28.45507812 9.08764648 C26.27068058 13.33508615 23.73826551 16.85707688 19.45507812 19.08764648 C15.39322443 19.78711421 11.38185876 19.78741327 7.26757812 19.77514648 C5.10734375 19.79171465 2.94715105 19.81609287 0.78710938 19.84936523 C-0.16446045 19.8489624 -1.11603027 19.84855957 -2.09643555 19.84814453 C-4.80182824 19.91870459 -4.80182824 19.91870459 -7.54492188 22.08764648 C-8.05113701 24.11041329 -8.05113701 24.11041329 -8.05664062 26.43920898 C-8.09208984 27.28999023 -8.12753906 28.14077148 -8.1640625 29.01733398 C-8.18662109 29.90678711 -8.20917969 30.79624023 -8.23242188 31.71264648 C-8.26658203 32.60983398 -8.30074219 33.50702148 -8.3359375 34.43139648 C-8.41854589 36.65002186 -8.48764906 38.86824589 -8.54492188 41.08764648 C-7.79919922 41.07604492 -7.05347656 41.06444336 -6.28515625 41.05249023 C-2.87067105 41.02281749 0.54064547 41.0547451 3.95507812 41.08764648 C5.128125 41.06831055 6.30117188 41.04897461 7.50976562 41.02905273 C13.89051645 41.13659348 17.67010599 41.52142435 22.29882812 46.15014648 C23.38543258 47.43421281 24.45122416 48.73790103 25.45507812 50.08764648 C23.36955338 54.63934285 20.92771015 57.7122431 16.45507812 60.08764648 C12.11325191 60.80218869 7.90250788 60.65708908 3.51757812 60.46264648 C2.35677734 60.43557617 1.19597656 60.40850586 0 60.38061523 C-2.85024463 60.31023882 -5.69659907 60.21183272 -8.54492188 60.08764648 C-8.53444824 61.13742676 -8.52397461 62.18720703 -8.51318359 63.26879883 C-8.47703735 67.15629681 -8.4540411 71.04377989 -8.43505859 74.93139648 C-8.42498871 76.61534115 -8.411332 78.29926828 -8.39404297 79.9831543 C-8.36983762 82.40084149 -8.35844891 84.81829792 -8.34960938 87.23608398 C-8.3392868 87.99134369 -8.32896423 88.74660339 -8.31832886 89.52474976 C-8.31792869 91.38058628 -8.42269471 93.23583929 -8.54492188 95.08764648 C-10.54492188 97.08764648 -10.54492188 97.08764648 -12.59204102 97.33056641 C-13.41309326 97.32645752 -14.23414551 97.32234863 -15.08007812 97.31811523 C-15.97146484 97.31618164 -16.86285156 97.31424805 -17.78125 97.31225586 C-18.71388672 97.30000977 -19.64652344 97.28776367 -20.60742188 97.27514648 C-22.01217773 97.27417969 -22.01217773 97.27417969 -23.4453125 97.27319336 C-30.40472964 97.22783872 -30.40472964 97.22783872 -31.54492188 96.08764648 C-31.65596554 93.54903688 -31.70231131 91.03737918 -31.70605469 88.49780273 C-31.71101959 87.70256699 -31.7159845 86.90733124 -31.72109985 86.08799744 C-31.73577001 83.44203845 -31.74253439 80.79613957 -31.74804688 78.15014648 C-31.75379797 76.31225584 -31.7595557 74.47436521 -31.76531982 72.63647461 C-31.77584607 68.77270223 -31.7816769 64.90895073 -31.78515625 61.04516602 C-31.79061944 56.11018378 -31.81459371 51.17548048 -31.8431282 46.24058533 C-31.86182505 42.43828551 -31.8669641 38.63605161 -31.86849213 34.83370972 C-31.87150746 33.01576221 -31.87949794 31.19781556 -31.89267731 29.37991333 C-31.90987198 26.82394817 -31.90782426 24.26864717 -31.90136719 21.71264648 C-31.91058197 20.97046371 -31.91979675 20.22828094 -31.92929077 19.46360779 C-31.88643392 14.00524899 -30.83945243 9.06787029 -28.54492188 4.08764648 C-21.84514348 -2.03786519 -8.5682043 -0.12453785 0 0 Z " fill="#FBFBFB" transform="translate(32.544921875,9.912353515625)"/>
<path d="M0 0 C3.69662557 1.91524005 5.90562837 4.42540847 8 8 C9.14273252 13.76476475 9.02491818 19.41737832 8.9296875 25.2734375 C8.93213256 26.96441591 8.93839292 28.65539268 8.94827271 30.34634399 C8.96532888 34.78503921 8.93660854 39.22220527 8.89630127 43.66070557 C8.84062482 50.75522574 8.85967546 57.85005351 8.86957169 64.94472122 C8.86723813 67.40750524 8.84838491 69.8696915 8.82614136 72.33236694 C8.78075263 80.08876719 8.9604963 87.45877581 11 95 C11.33387983 96.33319659 11.66737646 97.66648942 12 99 C9.61072363 100.34640983 7.2147427 101.67709053 4.8125 103 C4.13896484 103.3815625 3.46542969 103.763125 2.77148438 104.15625 C-3.79197859 107.74214196 -3.79197859 107.74214196 -8 107 C-12.59841306 102.6643534 -14.03846977 97.19275025 -14.25396729 91.00289917 C-14.26570759 89.52655541 -14.26673259 88.05009954 -14.25878906 86.57373047 C-14.2622937 85.76143982 -14.26579834 84.94914917 -14.26940918 84.11224365 C-14.27815869 81.44713611 -14.27240255 78.78229739 -14.265625 76.1171875 C-14.26697334 74.25586903 -14.26891528 72.39455091 -14.27142334 70.53323364 C-14.27436519 66.64142488 -14.27010623 62.74970819 -14.26074219 58.85791016 C-14.24933232 53.87342971 -14.25592278 48.88916431 -14.26788712 43.9046917 C-14.27511753 40.06481305 -14.27281262 36.22498532 -14.26763153 32.38510513 C-14.26629913 30.54712015 -14.26792839 28.70913052 -14.27259064 26.87115097 C-14.27767702 24.3031363 -14.26991669 21.73546929 -14.25878906 19.16748047 C-14.26283752 18.41099213 -14.26688599 17.65450378 -14.27105713 16.87509155 C-14.23115297 11.89704778 -13.75518518 8.03813694 -10.44921875 4.19921875 C-9.86785156 3.70035156 -9.28648437 3.20148437 -8.6875 2.6875 C-8.11386719 2.17574219 -7.54023438 1.66398438 -6.94921875 1.13671875 C-4.40397815 -0.34757987 -2.92121406 -0.28014875 0 0 Z " fill="#FBFBFB" transform="translate(338,2)"/>
<path d="M0 0 C-0.74443359 0.41958984 -0.74443359 0.41958984 -1.50390625 0.84765625 C-6.7622363 3.95076943 -10.86756906 7.5188952 -15 12 C-15 7.92363233 -13.79976365 6.93975184 -11 4 C-3.96553846 -1.32184615 -3.96553846 -1.32184615 0 0 Z " fill="#EBEBEB" transform="translate(258,40)"/>
<path d="" fill="#FEFEFE" transform="translate(0,0)"/>
<path d="" fill="#FEFEFE" transform="translate(0,0)"/>
<path d="" fill="#FEFEFE" transform="translate(0,0)"/>
<path d="" fill="#FEFEFE" transform="translate(0,0)"/>
<path d="" fill="#FEFEFE" transform="translate(0,0)"/>
<path d="" fill="#FEFEFE" transform="translate(0,0)"/>
<path d="" fill="#FEFEFE" transform="translate(0,0)"/>
<path d="" fill="#FEFEFE" transform="translate(0,0)"/>
<path d="" fill="#FEFEFE" transform="translate(0,0)"/>
<path d="" fill="#FEFEFE" transform="translate(0,0)"/>
<path d="" fill="#FEFEFE" transform="translate(0,0)"/>
<path d="" fill="#FEFEFE" transform="translate(0,0)"/>
<path d="" fill="#FEFEFE" transform="translate(0,0)"/>
<path d="" fill="#FEFEFE" transform="translate(0,0)"/>
<path d="" fill="#FEFEFE" transform="translate(0,0)"/>
<path d="" fill="#FEFEFE" transform="translate(0,0)"/>
<path d="" fill="#FEFEFE" transform="translate(0,0)"/>
<path d="" fill="#FEFEFE" transform="translate(0,0)"/>
<path d="" fill="#FEFEFE" transform="translate(0,0)"/>
<path d="" fill="#FEFEFE" transform="translate(0,0)"/>
</svg>
